<svg xmlns="http://www.w3.org/2000/svg" viewBox="0 0 114.24 48" class="ed ef ee a0 s5 s6 s7 s8 ah"><path d="M87.093 48V29.814h-8.185V27.13h19.078v2.684h-8.215V48zm-17.823-.239a6.359 6.359 0 01-1.92-.8 6.136 6.136 0 01-1.637-1.535 6.985 6.985 0 01-1.115-2.4l2.351-1.253a4.913 4.913 0 001.458 2.639 4.1 4.1 0 002.8.91 3.931 3.931 0 002.559-.776 2.715 2.715 0 00.952-2.236 2.783 2.783 0 00-.312-1.386 3.015 3.015 0 00-.834-.939 4.557 4.557 0 00-1.175-.626q-.654-.238-1.369-.478-1.012-.328-2.112-.759A8.424 8.424 0 0166.9 37a5.529 5.529 0 01-1.488-1.714 5.061 5.061 0 01-.581-2.519 5.49 5.49 0 01.506-2.4 5.152 5.152 0 011.369-1.774 6.047 6.047 0 012.012-1.093 7.717 7.717 0 012.4-.372 6.51 6.51 0 014.167 1.342 7.069 7.069 0 012.381 3.667l-2.531 1.013a4.506 4.506 0 00-1.517-2.563 4.167 4.167 0 00-2.559-.775 3.667 3.667 0 00-2.649.864 2.833 2.833 0 00-.893 2.117 2.488 2.488 0 00.312 1.3 3 3 0 00.863.91 5.754 5.754 0 001.31.67q.759.284 1.622.581 1.221.417 2.277.88a7.083 7.083 0 011.83 1.133 4.818 4.818 0 011.221 1.625 5.464 5.464 0 01.446 2.326 6.073 6.073 0 01-.5 2.578 5.173 5.173 0 01-1.355 1.8 5.524 5.524 0 01-1.965 1.058 7.9 7.9 0 01-2.345.346 8.552 8.552 0 01-1.964-.239zM38.822 48l-13.3-16.547V48H22.84V27.13h2.678l13.3 16.577V27.13H41.5V48zm8.905 0V27.13h12.8v2.683H50.406v6.411h10.119v2.683H50.406v6.41h10.119V48zm14.54-26.453l-6.059-7.533h-5.8v6.857h-2.682V0h8.007a7.367 7.367 0 012.8.522 6.66 6.66 0 012.217 1.461A6.849 6.849 0 0162.221 4.2a7.225 7.225 0 01.536 2.8 7.018 7.018 0 01-1 3.757 6.687 6.687 0 01-2.693 2.474l5.331 6.6-2.129 1.712zM50.406 11.33h3.66L52.22 9.022l2.08-1.669 2.976 3.708A4.186 4.186 0 0059.3 9.54a4.232 4.232 0 00.774-2.534 4.346 4.346 0 00-.343-1.744 4.281 4.281 0 00-.931-1.371A4.169 4.169 0 0057.415 3a4.533 4.533 0 00-1.681-.313h-5.328zm52.406 8.75a9.975 9.975 0 01-3.259-2.191 10.4 10.4 0 01-2.188-3.309 10.568 10.568 0 01-.8-4.145 10.567 10.567 0 01.8-4.144 10.4 10.4 0 012.188-3.309 9.939 9.939 0 013.273-2.191A10.5 10.5 0 01106.918 0a9.867 9.867 0 014.048.805 11.962 11.962 0 013.274 2.146l-1.22 2.534a9.745 9.745 0 00-.9-.833 10.48 10.48 0 00-1.768-1.165 7.54 7.54 0 00-3.556-.8 7.8 7.8 0 00-2.991.567 7.207 7.207 0 00-2.4 1.579 7.314 7.314 0 00-1.591 2.445 8.345 8.345 0 00-.581 3.16 8.346 8.346 0 00.581 3.161 7.293 7.293 0 001.591 2.444 7.2 7.2 0 002.4 1.58 7.8 7.8 0 002.991.567 9.6 9.6 0 001.859-.179 8.524 8.524 0 001.98-.686l.476 2.684a17.005 17.005 0 01-2.262.656 10.365 10.365 0 01-6.042-.581zm-13.054.791V0h2.678v20.87zm-21.665 0V0h7.143a10.664 10.664 0 014.107.79 10.216 10.216 0 013.3 2.176 9.935 9.935 0 012.188 3.294 10.857 10.857 0 01.789 4.174 10.863 10.863 0 01-.789 4.174 9.953 9.953 0 01-2.185 3.292 10.244 10.244 0 01-3.3 2.176 10.668 10.668 0 01-4.107.79zm2.678-2.684h4.464a8.26 8.26 0 003.081-.566 7.206 7.206 0 002.44-1.595 7.383 7.383 0 001.607-2.46 8.286 8.286 0 00.581-3.13 8.172 8.172 0 00-.581-3.116 7.257 7.257 0 00-4.047-4.055 8.06 8.06 0 00-3.081-.581h-4.464zM15.982 20.87L2.678 4.323V20.87H0V0h2.678l13.3 16.577V0h2.678v20.87zm13.074-.791a9.956 9.956 0 01-5.491-5.5 10.786 10.786 0 01-.789-4.145 10.782 10.782 0 01.789-4.144 9.949 9.949 0 015.491-5.5A10.739 10.739 0 0133.194 0a10.847 10.847 0 014.152.791 9.9 9.9 0 013.3 2.19 10.233 10.233 0 012.173 3.31 10.782 10.782 0 01.789 4.144 10.786 10.786 0 01-.789 4.145 10.229 10.229 0 01-2.173 3.309 9.9 9.9 0 01-3.3 2.191 10.837 10.837 0 01-4.152.79 10.729 10.729 0 01-4.138-.791zM30.1 3.264a7.187 7.187 0 00-4.063 4.07 8.226 8.226 0 00-.58 3.1 8.224 8.224 0 00.58 3.1A7.182 7.182 0 0030.1 17.6a8.529 8.529 0 006.191 0 7.182 7.182 0 004.063-4.069 8.2 8.2 0 00.581-3.1 8.2 8.2 0 00-.581-3.1 7.187 7.187 0 00-4.063-4.07 8.529 8.529 0 00-6.191 0z" fill="#1e2022"></path></svg>