<svg data-name="Lager 12" xmlns="http://www.w3.org/2000/svg" viewBox="0 0 40.25 40.25" class="aj s3 s4 ah"><path d="M20.12.12a20 20 0 1020 20 20 20 0 00-20-20zm17.32 13.46l-1.15.77-2.12-3.18 1.16-.77zm-4.62-6.93l2.12 3.17-1.15.77-2.12-3.17zm-1.7 1.15l2.5 3.76 2.12 3.17-1.15.77-2.47-3.67-.15-.23-2-3zm1.7 15.79l1.16.76-2.12 3.18-1.15-.77zm-2.11-10.11l1.15-.77 2.12 3.18-1.16.77zm3.85 11.26l1.15.77-2.12 3.17-1.15-.76zm-5.2-15.78l2.12 3.16-1.16.77-2.11-3.17zm-17.32.77l-4.62 6.93-1.16-.77 4.62-6.93zM10.3 8.57L5.69 15.5l-1.16-.77L9.12 7.8zM7.8 27.92l-1.15.76-2.12-3.17 1.16-.77zM7.42 6.65l1.15.77-4.62 6.93-1.15-.77zm0 26.94L2.8 26.66l1.15-.77 2.17 3.23.19.29 2.31 3.46zm1.7-1.15L7 29.26l1.16-.77 2.11 3.18zm1.73-1.16l-4.62-6.93 1.16-.76 4.62 6.92zm4.62-4.23a8.33 8.33 0 1111.55-2.31 8.33 8.33 0 01-11.52 2.31zm12.71 3.46l2.11-3.17 1.16.77-2.12 3.17zm1.73 1.16l2.11-3.18 1.16.77-2.06 3.18zm2.88 1.92l-1.15-.77 2.12-3.17 1.15.77zm2.51-3.75l-1.13-.72 2.12-3.18 1.15.77z" fill="#fff"></path><path d="M4.538 14.738l4.62-6.93 1.157.77-4.62 6.931zM2.795 13.58L7.42 6.652l1.156.772-4.624 6.928zM6.27 15.888l4.62-6.93 1.157.77-4.62 6.931zM34.168 29.07l2.121-3.177 1.156.772-2.12 3.177zM28.21 30.525l2.118-3.179 1.156.771-2.118 3.179zM31.683 32.834l2.118-3.18 1.157.771-2.118 3.18zM29.939 31.677l2.119-3.178 1.156.771-2.119 3.179zM32.45 27.919l2.12-3.179 1.156.772-2.119 3.178zM30.315 26.63l2.1-3.17 1.154.764-2.1 3.17z"></path><path d="M24.74 13.19a8.33 8.33 0 00-11.55 2.31 4.164 4.164 0 006.93 4.62 4.164 4.164 0 016.93 4.62 8.33 8.33 0 00-2.31-11.55z" fill="#ff0006"></path><path d="M25.89 18.97a4.16 4.16 0 00-5.77 1.15 4.164 4.164 0 01-6.93-4.62 8.33 8.33 0 0013.86 9.24 4.15 4.15 0 00-1.16-5.77z" fill="#0040ab"></path><path d="M30.387 13.678l1.154-.765 2.101 3.171-1.154.765zM31.671 7.422l1.157-.771 2.119 3.178-1.157.771zM34.252 10.788l1.154-.779 2.139 3.171-1.154.778zM28.214 9.723l1.156-.771 2.12 3.178-1.157.771zM32.11 11.83l2.45 3.68 1.16-.77-2.12-3.18-2.5-3.75-1.16.77 2.02 3.02.15.23zM6.277 24.356l1.157-.772 4.621 6.93-1.156.772zM4.536 25.51l1.157-.77 2.117 3.18-1.157.77zM6.08 29.07L3.96 25.9l-1.16.77 4.62 6.93 1.16-.77-2.31-3.47-.19-.29zM6.688 29.328l1.153-.765 2.101 3.17-1.153.765z"></path><circle cx="20.13" cy="20.13" r="20" fill="none" stroke="#bbbcbc" stroke-miterlimit="10" stroke-width="0.25"></circle></svg>